<svg width="58" height="58" viewBox="0 0 58 58" fill="none" xmlns="http://www.w3.org/2000/svg">
<rect x="0.201172" y="0.200195" width="57.6" height="57.6" rx="28.8" fill="#E2EDFF"/>
<path d="M39.8004 16.1996C40.7566 16.1996 41.6004 17.0434 41.6004 18.0559V39.5996C41.6004 40.6121 40.7566 41.3996 39.8004 41.3996H18.1441C17.1879 41.3996 16.4004 40.6121 16.4004 39.5996V18.0559C16.4004 17.0434 17.1879 16.1996 18.1441 16.1996H39.8004ZM23.9941 37.7996V25.8184H20.2816V37.7996H23.9941ZM22.1379 24.1309C23.3191 24.1309 24.2754 23.1746 24.2754 21.9934C24.2754 20.8121 23.3191 19.7996 22.1379 19.7996C20.9004 19.7996 19.9441 20.8121 19.9441 21.9934C19.9441 23.1746 20.9004 24.1309 22.1379 24.1309ZM38.0004 37.7996V31.2184C38.0004 28.0121 37.2691 25.4809 33.5004 25.4809C31.7004 25.4809 30.4629 26.4934 29.9566 27.4496H29.9004V25.8184H26.3566V37.7996H30.0691V31.8934C30.0691 30.3184 30.3504 28.7996 32.3191 28.7996C34.2316 28.7996 34.2316 30.5996 34.2316 31.9496V37.7996H38.0004Z" fill="#465D7C"/>
</svg>
