<svg width="59" height="58" viewBox="0 0 59 58" fill="none" xmlns="http://www.w3.org/2000/svg">
<rect x="0.801758" y="0.200195" width="57.6" height="57.6" rx="28.8" fill="#E2EDFF"/>
<g clip-path="url(#clip0_2861_194236)">
<path d="M40.8765 40.4813C40.7904 40.6381 40.6638 40.7689 40.5098 40.8602C40.3559 40.9514 40.1804 40.9997 40.0015 41H34.0015C33.8332 40.9999 33.6676 40.9574 33.5201 40.8764C33.3726 40.7953 33.248 40.6783 33.1577 40.5362L28.0965 32.5825L20.7415 40.6725C20.5622 40.8651 20.3142 40.9793 20.0513 40.9903C19.7884 41.0012 19.5317 40.9082 19.337 40.7312C19.1422 40.5542 19.0251 40.3076 19.011 40.0448C18.9968 39.7821 19.0868 39.5243 19.2615 39.3275L26.9827 30.8275L19.1577 18.5375C19.0613 18.3863 19.0074 18.212 19.0015 18.0328C18.9956 17.8536 19.038 17.6761 19.1243 17.5189C19.2106 17.3617 19.3375 17.2306 19.4918 17.1393C19.6461 17.048 19.8222 16.9999 20.0015 17H26.0015C26.1698 17.0001 26.3353 17.0426 26.4828 17.1236C26.6303 17.2047 26.755 17.3217 26.8452 17.4638L31.9065 25.4175L39.2615 17.3275C39.4408 17.1349 39.6887 17.0207 39.9517 17.0097C40.2146 16.9988 40.4712 17.0918 40.6659 17.2688C40.8607 17.4458 40.9778 17.6924 40.992 17.9552C41.0061 18.2179 40.9161 18.4757 40.7415 18.6725L33.0202 27.1663L40.8452 39.4638C40.941 39.615 40.9945 39.7892 41 39.9682C41.0055 40.1472 40.9628 40.3244 40.8765 40.4813Z" fill="#465D7C"/>
</g>
<defs>
<clipPath id="clip0_2861_194236">
<rect width="32" height="32" fill="white" transform="translate(14.001 13)"/>
</clipPath>
</defs>
</svg>
