<svg width="59" height="58" viewBox="0 0 59 58" fill="none" xmlns="http://www.w3.org/2000/svg">
<rect x="0.601562" y="0.200195" width="57.6" height="57.6" rx="28.8" fill="#E2EDFF"/>
<path d="M43.35 28.7996C43.35 35.7746 38.2313 41.5684 31.5375 42.5809V32.8496H34.8L35.4188 28.7996H31.5375V26.2121C31.5375 25.0871 32.1 24.0184 33.8438 24.0184H35.5875V20.5871C35.5875 20.5871 34.0125 20.3059 32.4375 20.3059C29.2875 20.3059 27.2063 22.2746 27.2063 25.7621V28.7996H23.6625V32.8496H27.2063V42.5809C20.5125 41.5684 15.45 35.7746 15.45 28.7996C15.45 21.0934 21.6938 14.8496 29.4 14.8496C37.1063 14.8496 43.35 21.0934 43.35 28.7996Z" fill="#465D7C"/>
</svg>
