<svg width="126" height="28" viewBox="0 0 126 28" fill="none" xmlns="http://www.w3.org/2000/svg">
<g clip-path="url(#clip0_2935_59625)">
<path d="M27.1456 13.9988C27.1456 10.7188 25.9456 7.71878 23.9723 5.41211L22.3989 6.99878C22.5056 7.11878 22.5989 7.23878 22.6923 7.37211C24.0789 9.22544 24.9189 11.5188 24.9189 13.9988C24.9189 16.4788 24.1723 18.5588 22.8923 20.3454C22.8923 20.3588 22.8923 20.3721 22.8656 20.3854H22.9189L24.4789 21.9588C24.8523 21.4654 25.1989 20.9321 25.4923 20.3854H25.5056C26.5456 18.4921 27.1456 16.3188 27.1456 14.0121V13.9988Z" fill="#0A76BD"/>
<path d="M0.853027 13.9988C0.853027 10.7188 2.05303 7.71878 4.02636 5.41211L5.59969 6.99878C4.02636 8.90544 3.07969 11.3321 3.07969 13.9988C3.07969 20.0388 7.97303 24.9588 13.9997 24.9588C16.6397 24.9588 19.0797 24.0121 20.973 22.4254L22.5464 24.0121C20.2397 25.9988 17.2664 27.1988 13.9997 27.1988C11.1997 27.1988 8.59969 26.3054 6.46636 24.7988L1.11969 25.1454L2.49303 20.3721C1.45303 18.4788 0.853027 16.3054 0.853027 13.9988Z" fill="#3D3C70"/>
<path d="M14.0001 5.63981C15.7334 5.63981 17.3601 6.17314 18.6934 7.07981L22.0534 3.70647C19.8134 1.89314 16.9468 0.799805 13.8401 0.799805C10.7334 0.799805 8.14678 1.78647 5.94678 3.45314L9.46678 6.98647C10.7734 6.13314 12.3334 5.63981 14.0001 5.63981Z" fill="#85C556"/>
<path d="M10.9211 4.05333C11.0411 3.94667 11.1611 3.81333 11.2678 3.69333C11.3745 3.56 11.4678 3.42667 11.5345 3.28C11.6011 3.13333 11.6411 2.98667 11.6411 2.84C11.6411 2.6 11.5611 2.38667 11.4011 2.24C11.2411 2.08 11.0278 2 10.7478 2C10.4678 2 10.4145 2.04 10.2811 2.10667C10.1345 2.17333 10.0278 2.28 9.94779 2.41333C9.86779 2.54667 9.81445 2.72 9.81445 2.92V2.97333H10.3878V2.92C10.3878 2.8 10.4145 2.70667 10.4811 2.62667C10.5345 2.54667 10.6278 2.50667 10.7478 2.50667C10.8678 2.50667 10.9478 2.53333 10.9878 2.61333C11.0411 2.69333 11.0678 2.77333 11.0678 2.86667C11.0678 2.96 11.0411 3.08 10.9745 3.2C10.9078 3.32 10.8145 3.44 10.6945 3.56C10.5745 3.68 10.4411 3.81333 10.2945 3.94667C10.1478 4.08 9.98779 4.21333 9.82779 4.33333H9.81445V4.77333H11.7211V4.28H10.6811C10.7611 4.21333 10.8411 4.13333 10.9345 4.06667L10.9211 4.05333Z" fill="white"/>
<path d="M13.921 2.04102H13.2943L12.041 3.82768V4.28102H13.321V4.76102H13.9077V4.28102H14.2543V3.76102H13.9077V2.04102H13.921ZM12.7077 3.76102L13.361 2.80102V3.76102H12.7077Z" fill="white"/>
<path d="M14.5347 5.18643H15.108L16.068 1.75977H15.4947L14.5347 5.18643Z" fill="white"/>
<path d="M16.3208 2.04102V2.56102H17.5741L16.5875 4.77435H17.2008L18.2008 2.46768V2.04102H16.3208Z" fill="white"/>
<path d="M16.3338 21.0132H14.6938V21.4398H13.4938V21.0132H11.8538C11.3872 21.0132 10.9738 20.8132 10.6938 20.4932V23.4798H17.4938V20.4932C17.2138 20.8132 16.8005 21.0132 16.3338 21.0132Z" fill="#F79432"/>
<path d="M11.8537 20.6133H13.4937V20.2H14.6937V20.6133H16.3337C16.9737 20.6133 17.4937 20.0933 17.4937 19.4533V18.4267H15.6137V18.2933C15.6137 17.7733 15.187 17.3467 14.667 17.3467H13.5337C13.0137 17.3467 12.587 17.7733 12.587 18.2933V18.4267H10.707V19.4533C10.707 20.0933 11.227 20.6133 11.867 20.6133H11.8537ZM12.9737 18.2933C12.9737 17.9867 13.227 17.7467 13.5204 17.7467H14.6537C14.9604 17.7467 15.2004 18 15.2004 18.2933V18.4267H12.9604V18.2933H12.9737Z" fill="#F79432"/>
<path d="M19.5481 12.5846C20.7632 12.5846 21.7481 11.5996 21.7481 10.3846C21.7481 9.16954 20.7632 8.18457 19.5481 8.18457C18.3331 8.18457 17.3481 9.16954 17.3481 10.3846C17.3481 11.5996 18.3331 12.5846 19.5481 12.5846Z" fill="black" stroke="black" stroke-width="0.00508912" stroke-miterlimit="10"/>
<path d="M21.0011 13.2914L20.6944 16.0248L19.9877 13.9181L20.4277 13.3448L20.2144 13.0381H19.3344L19.1077 13.3448L19.5077 13.9181L18.8011 16.0248L18.4544 13.1714C16.7877 13.7048 15.6011 15.1981 15.6011 16.9981H23.5211C23.5211 15.3314 22.4677 13.8781 21.0144 13.3048L21.0011 13.2914Z" fill="black" stroke="black" stroke-width="0.00508912" stroke-miterlimit="10"/>
<path d="M8.73271 12.5846C9.94774 12.5846 10.9327 11.5996 10.9327 10.3846C10.9327 9.16954 9.94774 8.18457 8.73271 8.18457C7.51769 8.18457 6.53271 9.16954 6.53271 10.3846C6.53271 11.5996 7.51769 12.5846 8.73271 12.5846Z" fill="#227650"/>
<path d="M10.5593 13.4654V14.7054C10.7726 14.7854 10.9193 14.9854 10.9193 15.2121C10.9193 15.4387 10.6793 15.7587 10.3726 15.7587C10.0659 15.7587 9.82594 15.5187 9.82594 15.2121C9.82594 14.9054 9.98594 14.7587 10.2126 14.6921V13.2921C10.2126 13.2921 10.1859 13.2921 10.1726 13.2787C10.1726 13.2787 9.70594 13.0787 9.46594 13.0254L8.78594 14.2787L8.02594 13.0787C7.81261 13.1187 7.74594 13.1187 7.62594 13.1454C7.50594 13.1721 7.35928 13.2387 7.22594 13.2921V14.3454C7.71928 14.4254 8.10594 14.8254 8.14594 15.3187V16.4254H7.55928V15.9321H7.81261V15.3321C7.77261 14.9454 7.43928 14.6521 7.05261 14.6521C6.66594 14.6521 6.33261 14.9454 6.29261 15.3321V15.9321H6.57261V16.4254H5.95928V15.3187C6.01261 14.8121 6.39928 14.4121 6.87928 14.3454V13.4521C5.59928 14.1321 4.75928 15.4387 4.75928 16.9721H12.6793C12.6793 15.4521 11.7993 14.1054 10.5459 13.4521L10.5593 13.4654Z" fill="#227650"/>
</g>
<g clip-path="url(#clip1_2935_59625)">
<path d="M36.7185 4.93457H34.0229V18.9594H36.7185V4.93457Z" fill="#282828"/>
<path d="M77.5748 14.4991C77.4106 15.197 77.0548 15.758 76.5212 16.1411C75.9876 16.5379 75.2624 16.7431 74.373 16.7431C73.4836 16.7431 72.1564 16.3053 71.4586 15.4569C70.7607 14.5949 70.405 13.4045 70.405 11.8994C70.405 10.3943 70.7607 9.19021 71.4586 8.32819C72.1564 7.46617 73.1415 7.02832 74.373 7.02832C75.6044 7.02832 75.9876 7.24725 76.5212 7.65773C77.0548 8.0819 77.4106 8.67026 77.5748 9.40913V9.46386H80.4755V9.38176C80.2019 7.86297 79.5314 6.67257 78.4778 5.83792C77.4243 5.00327 76.056 4.5791 74.414 4.5791C72.7721 4.5791 71.828 4.89381 70.8291 5.50953C69.8303 6.12526 69.0641 7.00096 68.5168 8.09558C67.9831 9.19021 67.7095 10.4764 67.7095 11.8994C67.7095 13.3224 67.9831 14.6086 68.5168 15.7032C69.0504 16.7978 69.8303 17.6599 70.8291 18.2756C71.828 18.8913 73.0321 19.1923 74.414 19.1923C75.796 19.1923 77.4243 18.7819 78.4778 17.9609C79.5314 17.1399 80.2019 15.9906 80.4618 14.5402V14.4581C80.4755 14.4581 77.5884 14.4581 77.5884 14.4581V14.5128L77.5748 14.4991Z" fill="#85C556"/>
<path d="M89.2887 9.73817C88.4814 9.02666 87.3731 8.65723 85.9911 8.65723C84.6092 8.65723 84.4313 8.80774 83.7745 9.09508C83.1177 9.38242 82.5704 9.80658 82.1599 10.3402C81.7495 10.8875 81.5032 11.5306 81.4348 12.2558V12.3379H83.9934V12.2832C84.0892 11.8316 84.3218 11.4759 84.6776 11.2433C85.047 11.0107 85.4712 10.8875 85.9638 10.8875C86.4563 10.8875 86.9626 11.038 87.3184 11.3527C87.6741 11.6538 87.8657 12.1463 87.8657 12.8031V12.9673H85.4849C84.0755 12.9673 82.9946 13.2683 82.2831 13.843C81.5716 14.4314 81.2021 15.1976 81.2021 16.128C81.2021 17.0585 81.339 17.1953 81.599 17.6605C81.8589 18.1257 82.2694 18.4952 82.8167 18.7825C83.3503 19.0562 84.0619 19.193 84.8965 19.193C85.7312 19.193 86.3879 19.0151 86.9079 18.6594C87.3731 18.3446 87.7425 17.9478 88.0299 17.4963L88.2488 18.9604H90.5065V12.8031C90.5065 11.5032 90.096 10.477 89.2887 9.75185V9.73817ZM87.0721 16.3606C86.689 16.8259 86.1416 17.0585 85.4575 17.0585C84.7734 17.0585 84.6365 16.949 84.3629 16.7574C84.0892 16.5522 83.9661 16.2785 83.9661 15.9091C83.9661 15.5397 84.1029 15.2934 84.3766 15.0471C84.6502 14.8145 85.1154 14.6913 85.7585 14.6913H87.7973C87.6878 15.3481 87.4415 15.9091 87.0721 16.3606Z" fill="#85C556"/>
<path d="M103.589 8.90332H100.962V18.9465H103.589V8.90332Z" fill="#85C556"/>
<path d="M102.274 4.41504C101.809 4.41504 101.412 4.56555 101.111 4.83921C100.81 5.12654 100.646 5.49598 100.646 5.93383C100.646 6.37168 100.797 6.7548 101.111 7.04214C101.412 7.32948 101.809 7.47999 102.274 7.47999C102.739 7.47999 103.136 7.32948 103.437 7.04214C103.738 6.7548 103.903 6.37168 103.903 5.93383C103.903 5.49598 103.752 5.12654 103.437 4.83921C103.136 4.55187 102.739 4.41504 102.274 4.41504Z" fill="#85C556"/>
<path d="M111.157 8.65723C110.377 8.65723 109.693 8.8351 109.118 9.19086C108.612 9.50556 108.201 9.91604 107.9 10.4223L107.723 8.9172C107.723 8.90352 105.396 8.90352 105.396 8.90352V18.9467H108.024V13.7609C108.024 12.8715 108.243 12.1737 108.68 11.6948C109.118 11.2022 109.679 10.9559 110.35 10.9559C111.02 10.9559 111.554 11.1749 111.868 11.6127C112.197 12.0506 112.361 12.6937 112.361 13.5283V18.9467H114.988V13.282C114.988 11.7769 114.646 10.6275 113.976 9.83395C113.305 9.05403 112.347 8.65723 111.13 8.65723H111.157Z" fill="#85C556"/>
<path d="M125.91 8.90254H122.189C121.723 8.73835 121.203 8.65625 120.656 8.65625C119.821 8.65625 119.096 8.82044 118.494 9.14883C117.906 9.47722 117.441 9.91507 117.112 10.4761C116.784 11.0371 116.62 11.6528 116.62 12.3232C116.62 13.3768 116.989 14.2662 117.728 14.9503L116.059 16.7565V17.2764H116.072C116.223 17.4406 116.387 17.5911 116.579 17.7279C116.743 17.8511 116.934 17.9606 117.167 18.07C116.373 18.7131 115.963 19.493 115.963 20.3687C115.963 21.2444 116.401 22.257 117.263 22.7906C118.111 23.3242 119.247 23.5842 120.629 23.5842C122.011 23.5842 122.503 23.42 123.16 23.0916C123.817 22.7632 124.309 22.3254 124.624 21.7917C124.939 21.2581 125.103 20.6834 125.103 20.0814C125.103 19.1783 124.802 18.4531 124.2 17.9332C123.612 17.4132 122.654 17.0985 121.354 16.9754C120.519 16.8933 119.904 16.8112 119.534 16.7428C119.206 16.6744 118.946 16.5923 118.74 16.4965L119.37 15.8534C119.767 15.9492 120.191 16.0039 120.656 16.0039C121.463 16.0039 122.189 15.8397 122.791 15.5113C123.393 15.1829 123.858 14.7451 124.173 14.1841C124.487 13.6368 124.651 13.0074 124.651 12.3369C124.651 11.6665 124.528 11.2149 124.296 10.7224L125.91 10.5992V8.90254ZM119.384 18.6857C119.835 18.7678 120.328 18.8226 120.848 18.8636C121.587 18.9184 122.079 19.0552 122.312 19.2878C122.544 19.5067 122.667 19.7941 122.667 20.1361C122.667 20.4782 122.49 20.875 122.12 21.1213C121.737 21.3676 121.244 21.5044 120.642 21.5044C120.04 21.5044 119.466 21.3813 119.028 21.1486C118.604 20.916 118.385 20.574 118.385 20.0951C118.385 19.6162 118.467 19.5888 118.617 19.3562C118.768 19.1236 119.028 18.891 119.384 18.6857ZM121.874 13.4863C121.559 13.7599 121.149 13.8831 120.656 13.8831C120.164 13.8831 119.726 13.7463 119.411 13.4863C119.11 13.2263 118.946 12.8295 118.946 12.3369C118.946 11.8443 119.096 11.4612 119.411 11.1876C119.726 10.9139 120.136 10.7908 120.656 10.7908C121.176 10.7908 121.545 10.9276 121.874 11.1876C122.189 11.4475 122.353 11.8443 122.353 12.3369C122.353 12.8295 122.189 13.2126 121.874 13.4863Z" fill="#85C556"/>
<path d="M94.5451 4.93457H91.8496V18.9594H94.5451V4.93457Z" fill="#85C556"/>
<path d="M98.9343 4.93457H96.2388V18.9594H98.9343V4.93457Z" fill="#85C556"/>
<path d="M46.5699 9.13518C45.9952 8.79311 45.2974 8.61523 44.4627 8.61523C43.6281 8.61523 42.9987 8.79311 42.4377 9.13518C41.8767 9.47725 41.4388 9.94247 41.1378 10.5035L40.9326 8.86152H38.5654V18.9594H41.2609V13.5684C41.2609 13.0074 41.3567 12.5285 41.562 12.1317C41.7672 11.7349 42.0409 11.4339 42.3829 11.215C42.7387 10.996 43.1355 10.9003 43.587 10.9003C44.2848 10.9003 44.8185 11.1192 45.1469 11.5434C45.4889 11.9675 45.6531 12.5832 45.6531 13.3905V18.9594H48.3213V13.1306C48.3213 12.1591 48.1708 11.3381 47.8697 10.6677C47.5687 9.9972 47.1309 9.49093 46.5699 9.14886V9.13518Z" fill="#282828"/>
<path d="M53.2909 7.95879C53.2909 7.5483 53.3866 7.26096 53.5645 7.08309C53.7424 6.91889 54.0434 6.8368 54.4676 6.8368H55.3022V4.53809H54.0708C53.3593 4.53809 52.7572 4.64755 52.2236 4.88016C51.7036 5.11276 51.2932 5.46852 51.0195 5.9611C50.7459 6.45368 50.5953 7.12414 50.5953 7.95879V8.86185H49.2134V11.1195H50.5953V18.9461H53.2909V11.1195H55.4664V8.86185H53.2909V7.95879Z" fill="#282828"/>
<path d="M56.6704 16.6607C57.122 17.4543 57.724 18.07 58.4903 18.5216C59.2565 18.9731 60.1185 19.192 61.0763 19.192C62.0341 19.192 62.9235 18.9731 63.6897 18.5216C64.456 18.07 65.0717 17.4543 65.5095 16.6607C65.9611 15.8671 66.18 14.9504 66.18 13.9105C66.18 12.8706 65.9611 11.9538 65.5095 11.1602C65.058 10.3666 64.456 9.7509 63.6897 9.29936C62.9235 8.84783 62.0615 8.62891 61.09 8.62891C60.1185 8.62891 59.2702 8.84783 58.5039 9.29936C57.7377 9.7509 57.122 10.3666 56.6841 11.1602C56.2326 11.9538 56.0137 12.8843 56.0137 13.9378C56.0137 14.9914 56.2326 15.8808 56.6841 16.6744L56.6704 16.6607ZM59.0649 12.2685C59.2702 11.8307 59.5575 11.5023 59.9133 11.2834C60.269 11.0644 60.6658 10.955 61.09 10.955C61.5142 10.955 61.9246 11.0644 62.2804 11.2834C62.6361 11.5023 62.9098 11.8307 63.115 12.2685C63.3203 12.7064 63.4298 13.24 63.4298 13.8968C63.4298 14.5536 63.3203 15.1009 63.115 15.5387C62.9098 15.9766 62.6361 16.305 62.2804 16.5239C61.9246 16.7428 61.5278 16.8386 61.0763 16.8386C60.6248 16.8386 60.2553 16.7291 59.9133 16.5239C59.5575 16.305 59.2839 15.9766 59.0786 15.5387C58.8734 15.1009 58.7639 14.5536 58.7639 13.8968C58.7639 13.24 58.8734 12.6927 59.0786 12.2685H59.0649Z" fill="#282828"/>
</g>
<defs>
<clipPath id="clip0_2935_59625">
<rect width="28" height="28" fill="white"/>
</clipPath>
<clipPath id="clip1_2935_59625">
<rect width="91.88" height="19.1696" fill="white" transform="translate(34.0205 4.41504)"/>
</clipPath>
</defs>
</svg>
