<svg width="58" height="58" viewBox="0 0 58 58" fill="none" xmlns="http://www.w3.org/2000/svg">
<rect x="0.399414" y="0.199219" width="57.6" height="57.6" rx="28.8" fill="#E2EDFF"/>
<path d="M29.1986 22.3289C32.7424 22.3289 35.6674 25.2539 35.6674 28.7977C35.6674 32.3977 32.7424 35.2664 29.1986 35.2664C25.5986 35.2664 22.7299 32.3977 22.7299 28.7977C22.7299 25.2539 25.5986 22.3289 29.1986 22.3289ZM29.1986 33.0164C31.5049 33.0164 33.3611 31.1602 33.3611 28.7977C33.3611 26.4914 31.5049 24.6352 29.1986 24.6352C26.8361 24.6352 24.9799 26.4914 24.9799 28.7977C24.9799 31.1602 26.8924 33.0164 29.1986 33.0164ZM37.4111 22.1039C37.4111 22.9477 36.7361 23.6227 35.8924 23.6227C35.0486 23.6227 34.3736 22.9477 34.3736 22.1039C34.3736 21.2602 35.0486 20.5852 35.8924 20.5852C36.7361 20.5852 37.4111 21.2602 37.4111 22.1039ZM41.6861 23.6227C41.7986 25.7039 41.7986 31.9477 41.6861 34.0289C41.5736 36.0539 41.1236 37.7977 39.6611 39.3164C38.1986 40.7789 36.3986 41.2289 34.3736 41.3414C32.2924 41.4539 26.0486 41.4539 23.9674 41.3414C21.9424 41.2289 20.1986 40.7789 18.6799 39.3164C17.2174 37.7977 16.7674 36.0539 16.6549 34.0289C16.5424 31.9477 16.5424 25.7039 16.6549 23.6227C16.7674 21.5977 17.2174 19.7977 18.6799 18.3352C20.1986 16.8727 21.9424 16.4227 23.9674 16.3102C26.0486 16.1977 32.2924 16.1977 34.3736 16.3102C36.3986 16.4227 38.1986 16.8727 39.6611 18.3352C41.1236 19.7977 41.5736 21.5977 41.6861 23.6227ZM38.9861 36.2227C39.6611 34.5914 39.4924 30.6539 39.4924 28.7977C39.4924 26.9977 39.6611 23.0602 38.9861 21.3727C38.5361 20.3039 37.6924 19.4039 36.6236 19.0102C34.9361 18.3352 30.9986 18.5039 29.1986 18.5039C27.3424 18.5039 23.4049 18.3352 21.7736 19.0102C20.6486 19.4602 19.8049 20.3039 19.3549 21.3727C18.6799 23.0602 18.8486 26.9977 18.8486 28.7977C18.8486 30.6539 18.6799 34.5914 19.3549 36.2227C19.8049 37.3477 20.6486 38.1914 21.7736 38.6414C23.4049 39.3164 27.3424 39.1477 29.1986 39.1477C30.9986 39.1477 34.9361 39.3164 36.6236 38.6414C37.6924 38.1914 38.5924 37.3477 38.9861 36.2227Z" fill="#465D7C"/>
</svg>
