<svg width="58" height="58" viewBox="0 0 58 58" fill="none" xmlns="http://www.w3.org/2000/svg">
<rect x="0.00195312" y="0.200195" width="57.6" height="57.6" rx="28.8" fill="#E2EDFF"/>
<g clip-path="url(#clip0_2861_194231)">
<path d="M42.2932 21.69C42.1754 21.2292 41.9498 20.803 41.6348 20.4465C41.3199 20.0901 40.9247 19.8137 40.482 19.64C36.197 17.985 29.377 18 29.002 18C28.627 18 21.807 17.985 17.522 19.64C17.0792 19.8137 16.684 20.0901 16.3691 20.4465C16.0541 20.803 15.8285 21.2292 15.7107 21.69C15.387 22.9375 15.002 25.2175 15.002 29C15.002 32.7825 15.387 35.0625 15.7107 36.31C15.8283 36.771 16.0539 37.1975 16.3688 37.5542C16.6838 37.9108 17.079 38.1875 17.522 38.3613C21.627 39.945 28.052 40 28.9195 40H29.0845C29.952 40 36.3807 39.945 40.482 38.3613C40.9249 38.1875 41.3201 37.9108 41.6351 37.5542C41.95 37.1975 42.1756 36.771 42.2932 36.31C42.617 35.06 43.002 32.7825 43.002 29C43.002 25.2175 42.617 22.9375 42.2932 21.69ZM33.0757 29.815L28.0757 33.315C27.9261 33.4198 27.7507 33.4816 27.5685 33.4938C27.3863 33.5059 27.2042 33.4679 27.0421 33.384C26.8799 33.3 26.7438 33.1732 26.6486 33.0174C26.5534 32.8615 26.5027 32.6826 26.502 32.5V25.5C26.502 25.3171 26.5522 25.1377 26.6472 24.9813C26.7421 24.8249 26.8781 24.6976 27.0404 24.6132C27.2027 24.5287 27.385 24.4904 27.5676 24.5024C27.7501 24.5144 27.9259 24.5763 28.0757 24.6813L33.0757 28.1813C33.2072 28.2735 33.3146 28.396 33.3887 28.5386C33.4629 28.6811 33.5016 28.8394 33.5016 29C33.5016 29.1606 33.4629 29.3189 33.3887 29.4614C33.3146 29.604 33.2072 29.7265 33.0757 29.8188V29.815Z" fill="#465D7C"/>
</g>
<defs>
<clipPath id="clip0_2861_194231">
<rect width="32" height="32" fill="white" transform="translate(13.002 13)"/>
</clipPath>
</defs>
</svg>
